<svg width="24" height="24" viewBox="0 0 24 24" fill="none" xmlns="http://www.w3.org/2000/svg">
<path d="M12 2C6.48 2 2 6.48 2 12S6.48 22 12 22 22 17.52 22 12 17.52 2 12 2ZM16.64 8.8C16.49 10.38 15.75 14.22 15.37 15.99C15.21 16.74 14.89 16.99 14.58 17.02C13.91 17.09 13.41 16.6 12.76 16.18C11.77 15.55 11.2 15.13 10.25 14.49C9.12 13.73 9.84 13.31 10.5 12.61C10.69 12.41 13.81 9.64 13.87 9.4C13.88 9.37 13.89 9.26 13.82 9.21C13.75 9.15 13.65 9.18 13.58 9.2C13.48 9.23 11.91 10.4 8.85 12.71C8.41 13.01 8.01 13.16 7.66 13.15C7.27 13.14 6.53 12.92 5.96 12.73C5.26 12.5 4.71 12.38 4.76 12C4.79 11.81 5.1 11.61 5.69 11.4C8.99 9.95 11.35 8.95 12.78 8.4C15.84 7.09 16.5 6.87 16.91 6.87C17 6.87 17.21 6.89 17.35 7C17.46 7.09 17.49 7.21 17.51 7.3C17.49 7.37 17.52 7.56 17.5 7.73" fill="currentColor"/>
</svg>